<svg width="200" height="200" viewBox="0 0 200 200" fill="none" xmlns="http://www.w3.org/2000/svg">
<path d="M120.727 52.9154C119.694 52.1041 118.635 51.3545 117.618 50.7656C117.486 50.7121 117.367 50.6379 117.239 50.5803C116.642 50.222 116.028 49.8801 115.41 49.5548C112.495 47.5574 110.575 44.3079 110.575 40.6096C110.575 34.5308 115.703 29.6011 122.033 29.6011C128.359 29.6011 133.49 34.5308 133.49 40.6096C133.49 41.9275 133.247 43.1918 132.807 44.3656C132.172 46.0377 133.264 47.858 135.039 48.0804L135.319 48.1175C136.596 48.2781 137.802 47.5326 138.263 46.3301C138.947 44.5468 139.322 42.6235 139.322 40.6137C139.318 31.4379 131.579 24 122.033 24C112.486 24 104.748 31.4379 104.748 40.6096C104.748 43.7602 105.679 46.6925 107.26 49.2047C108.726 51.7417 110.435 53.1914 111.028 53.6526C111.164 53.7556 111.304 53.8379 111.457 53.9162C111.811 54.0933 112.157 54.2869 112.511 54.4681C113.051 54.814 113.619 55.1188 114.2 55.4029C125.171 61.8977 132.543 73.8658 132.543 87.576C132.543 108.205 115.892 124.926 95.3537 124.926C74.8151 124.926 58.1644 108.205 58.1644 87.576C58.1644 75.9456 63.4565 65.559 71.7551 58.71C72.5829 58.0264 72.9001 56.8979 72.6077 55.8642L72.5665 55.7201C72.0228 53.7968 69.6753 53.0719 68.135 54.3445C58.5927 62.2354 52.5056 74.1912 52.5056 87.576C52.5056 111.343 71.6892 130.609 95.3537 130.609C119.018 130.609 138.202 111.343 138.202 87.576C138.202 73.351 131.324 60.7487 120.727 52.9154Z" fill="black"/>
<path d="M114.418 60.4233C127.214 68.0795 130.035 86.9047 120.719 102.481C111.403 118.052 93.4798 124.473 80.6839 116.817C95.712 125.807 115.447 120.47 124.763 104.898C134.079 89.3264 129.446 69.4138 114.418 60.4233Z" fill="black"/>
<path d="M32.0165 154.109C31.9959 155.126 32.1647 155.975 32.5189 156.658C32.8731 157.342 33.3632 157.886 33.981 158.293C34.6028 158.701 35.3359 158.989 36.1843 159.167C37.0327 159.344 37.9388 159.43 38.9025 159.43C39.4543 159.43 40.0556 159.356 40.7063 159.208C41.3571 159.059 41.9625 158.825 42.5226 158.499C43.0827 158.178 43.5522 157.762 43.927 157.251C44.3017 156.745 44.4871 156.127 44.4871 155.406C44.4871 154.85 44.3553 154.373 44.0876 153.965C43.8199 153.557 43.478 153.215 43.0538 152.94C42.6296 152.664 42.1601 152.437 41.6495 152.26C41.1388 152.083 40.6363 151.943 40.1421 151.832L35.443 150.749C34.8129 150.6 34.2116 150.415 33.6391 150.193C33.0667 149.97 32.5642 149.674 32.1318 149.307C31.6994 148.936 31.3493 148.483 31.0816 147.948C30.8139 147.413 30.6821 146.758 30.6821 145.979C30.6821 145.498 30.781 144.933 30.9786 144.287C31.1763 143.64 31.547 143.031 32.0865 142.458C32.6301 141.886 33.3714 141.4 34.3187 141.004C35.2659 140.609 36.4767 140.407 37.9552 140.407C39.0013 140.407 39.9939 140.535 40.9411 140.794C41.8883 141.054 42.7203 141.441 43.441 141.96C44.1617 142.479 44.7259 143.121 45.1419 143.887C45.5578 144.653 45.7638 145.547 45.7638 146.564H43.754C43.7128 145.806 43.5357 145.147 43.2227 144.583C42.9056 144.019 42.4855 143.55 41.9501 143.171C41.4188 142.792 40.8134 142.503 40.1339 142.31C39.4543 142.116 38.7377 142.017 37.9923 142.017C37.3004 142.017 36.6373 142.087 35.9949 142.223C35.3524 142.363 34.7923 142.586 34.3104 142.891C33.8286 143.195 33.4373 143.599 33.1449 144.097C32.8484 144.596 32.7001 145.217 32.7001 145.955C32.7001 146.416 32.7825 146.82 32.9514 147.161C33.1202 147.503 33.3508 147.791 33.6474 148.022C33.9439 148.253 34.2816 148.446 34.6687 148.603C35.0518 148.759 35.4636 148.883 35.896 148.978L41.0399 150.168C41.7895 150.353 42.4937 150.58 43.1527 150.847C43.8116 151.115 44.3964 151.449 44.8989 151.844C45.4013 152.244 45.7967 152.725 46.0809 153.302C46.3651 153.874 46.5092 154.566 46.5092 155.382C46.5092 155.604 46.4845 155.901 46.4351 156.267C46.3856 156.638 46.2662 157.029 46.0809 157.445C45.8914 157.861 45.6279 158.281 45.2819 158.705C44.936 159.129 44.4623 159.521 43.8611 159.871C43.2598 160.221 42.5143 160.505 41.6289 160.715C40.7434 160.925 39.6767 161.032 38.4371 161.032C37.1975 161.032 36.0402 160.896 34.9776 160.629C33.9151 160.361 33.0049 159.945 32.2595 159.381C31.5099 158.817 30.9333 158.096 30.5297 157.219C30.1261 156.341 29.9532 155.299 30.0108 154.101H32.0165V154.109Z" fill="black"/>
<path d="M49.3674 140.856H51.229V143.628H49.3674V140.856V140.856ZM49.3674 146.317H51.229V160.624H49.3674V146.317V146.317Z" fill="black"/>
<path d="M54.8078 140.827H56.6693V149.035H56.727C56.9247 148.516 57.2047 148.063 57.5713 147.676C57.9378 147.289 58.3538 146.964 58.8274 146.704C59.301 146.445 59.8076 146.247 60.3512 146.107C60.8948 145.967 61.4508 145.901 62.0233 145.901C63.1847 145.901 64.1978 146.103 65.0544 146.511C65.9111 146.918 66.6277 147.466 67.196 148.162C67.7685 148.854 68.1927 149.661 68.4686 150.575C68.7445 151.49 68.8804 152.458 68.8804 153.471C68.8804 154.488 68.7404 155.452 68.4686 156.37C68.1927 157.284 67.7685 158.087 67.196 158.783C66.6235 159.475 65.9111 160.027 65.0544 160.435C64.1978 160.843 63.1888 161.045 62.0233 161.045C60.7836 161.045 59.6717 160.769 58.6956 160.213C57.7195 159.657 57.0153 158.891 56.5828 157.91H56.5252V160.629H54.8119V140.827H54.8078ZM67.0189 153.471C67.0189 152.734 66.9242 151.996 66.7389 151.267C66.5535 150.538 66.257 149.888 65.8534 149.311C65.4498 148.739 64.9309 148.273 64.3008 147.911C63.6706 147.548 62.9128 147.371 62.0233 147.371C61.039 147.371 60.207 147.553 59.5275 147.911C58.848 148.273 58.2961 148.739 57.8719 149.311C57.4477 149.884 57.1429 150.534 56.9576 151.267C56.7682 151.996 56.6776 152.734 56.6776 153.471C56.6776 154.212 56.7723 154.945 56.9576 155.674C57.1429 156.403 57.4518 157.058 57.8719 157.63C58.2961 158.203 58.848 158.668 59.5275 159.031C60.207 159.393 61.039 159.57 62.0233 159.57C62.9087 159.57 63.6706 159.389 64.3008 159.031C64.9309 158.668 65.4498 158.203 65.8534 157.63C66.257 157.058 66.5535 156.407 66.7389 155.674C66.9242 154.945 67.0189 154.208 67.0189 153.471Z" fill="black"/>
<path d="M72.8712 153.94C72.8712 154.587 72.97 155.242 73.1677 155.909C73.3654 156.576 73.6619 157.177 74.0532 157.713C74.4485 158.248 74.9633 158.693 75.6058 159.043C76.2442 159.393 77.0102 159.57 77.8956 159.57C79.2547 159.57 80.3214 159.232 81.0874 158.557C81.8576 157.882 82.3888 157 82.6854 155.909H84.5469C84.1515 157.536 83.4267 158.796 82.3724 159.694C81.318 160.591 79.8231 161.036 77.8956 161.036C76.6725 161.036 75.6305 160.834 74.7615 160.427C73.8925 160.019 73.1842 159.471 72.6323 158.775C72.0804 158.083 71.6727 157.276 71.405 156.362C71.1373 155.448 71.0055 154.48 71.0055 153.462C71.0055 152.519 71.1373 151.597 71.405 150.691C71.6727 149.785 72.0804 148.978 72.6323 148.265C73.1842 147.553 73.8925 146.98 74.7615 146.548C75.6264 146.115 76.6725 145.897 77.8956 145.897C79.1188 145.897 80.1608 146.128 81.0298 146.589C81.8987 147.05 82.603 147.656 83.1425 148.405C83.6861 149.155 84.0733 150.011 84.3121 150.983C84.5469 151.955 84.6457 152.939 84.6087 153.936H72.8712V153.94ZM82.743 152.47C82.7224 151.803 82.5989 151.169 82.3724 150.555C82.1459 149.945 81.8246 149.406 81.4128 148.932C81.0009 148.463 80.4944 148.084 79.9054 147.796C79.3124 147.511 78.6452 147.367 77.8956 147.367C77.1255 147.367 76.446 147.511 75.857 147.796C75.264 148.084 74.7615 148.463 74.3497 148.932C73.9378 149.402 73.6042 149.949 73.3613 150.567C73.1142 151.185 72.9535 151.819 72.8753 152.466H82.743V152.47Z" fill="black"/>
<path d="M89.0113 140.827H87.1498V160.624H89.0113V140.827Z" fill="black"/>
<path d="M95.1642 154.023C95.1642 154.78 95.2795 155.427 95.5101 155.962C95.7408 156.498 96.062 156.939 96.4739 157.28C96.8857 157.622 97.3593 157.873 97.8947 158.03C98.4301 158.186 99.0108 158.265 99.6368 158.265C100.312 158.265 100.889 158.178 101.367 158.001C101.844 157.824 102.231 157.597 102.528 157.322C102.824 157.046 103.039 156.724 103.17 156.366C103.302 156.004 103.368 155.641 103.368 155.271C103.368 154.513 103.216 153.953 102.911 153.594C102.606 153.232 102.273 152.981 101.91 152.832C101.284 152.573 100.555 152.33 99.7233 152.099C98.8914 151.869 97.8659 151.568 96.651 151.197C95.8932 150.975 95.263 150.683 94.7606 150.324C94.2581 149.962 93.8587 149.562 93.5621 149.118C93.2656 148.673 93.0556 148.203 92.932 147.705C92.8085 147.207 92.7467 146.7 92.7467 146.181C92.7467 145.185 92.932 144.32 93.3027 143.591C93.6733 142.862 94.1634 142.256 94.7729 141.774C95.3825 141.293 96.0744 140.938 96.8445 140.708C97.6188 140.477 98.4013 140.362 99.192 140.362C100.115 140.362 100.984 140.498 101.795 140.765C102.61 141.033 103.327 141.437 103.941 141.972C104.558 142.508 105.048 143.171 105.411 143.953C105.773 144.74 105.954 145.65 105.954 146.684H102.87C102.787 145.407 102.4 144.509 101.708 143.982C101.016 143.455 100.135 143.191 99.0685 143.191C98.706 143.191 98.3354 143.232 97.9565 143.315C97.5776 143.397 97.2316 143.537 96.9186 143.731C96.6056 143.924 96.3462 144.188 96.1403 144.521C95.9343 144.855 95.8314 145.271 95.8314 145.769C95.8314 146.474 96.0249 147.021 96.4121 147.417C96.7992 147.816 97.3058 148.113 97.9318 148.319C97.9977 148.339 98.2571 148.417 98.7102 148.553C99.1632 148.693 99.6697 148.846 100.23 149.011C100.79 149.175 101.338 149.34 101.873 149.497C102.408 149.653 102.792 149.768 103.022 149.842C103.599 150.044 104.101 150.324 104.529 150.674C104.958 151.024 105.316 151.428 105.604 151.881C105.893 152.334 106.107 152.82 106.247 153.335C106.387 153.854 106.457 154.369 106.457 154.888C106.457 155.995 106.255 156.943 105.851 157.729C105.448 158.516 104.917 159.158 104.258 159.657C103.599 160.155 102.849 160.522 102.013 160.752C101.173 160.983 100.316 161.098 99.4474 161.098C98.4425 161.098 97.4952 160.958 96.6098 160.682C95.7202 160.406 94.9459 159.978 94.2911 159.405C93.6321 158.833 93.105 158.1 92.7096 157.202C92.3143 156.304 92.1083 155.246 92.0919 154.027H95.1642V154.023Z" fill="black"/>
<path d="M119.949 160.624H117.185V158.627H117.136C116.79 159.348 116.275 159.924 115.592 160.361C114.908 160.793 114.212 161.012 113.504 161.012C111.823 161.012 110.612 160.546 109.863 159.611C109.113 158.676 108.739 157.268 108.739 155.382V146.288H111.551V155.077C111.551 156.333 111.766 157.223 112.194 157.737C112.622 158.256 113.224 158.516 113.998 158.516C114.591 158.516 115.085 158.413 115.48 158.211C115.876 158.009 116.197 157.737 116.444 157.391C116.691 157.05 116.868 156.638 116.975 156.156C117.082 155.674 117.136 155.159 117.136 154.603V146.284H119.949V160.624Z" fill="black"/>
<path d="M122.914 146.288H125.579V148.286H125.653C125.867 147.936 126.098 147.61 126.345 147.314C126.592 147.017 126.868 146.77 127.173 146.564C127.477 146.362 127.827 146.198 128.223 146.078C128.618 145.959 129.071 145.897 129.582 145.897C130.356 145.897 131.077 146.091 131.744 146.478C132.411 146.865 132.885 147.466 133.165 148.281C133.643 147.544 134.194 146.959 134.82 146.535C135.446 146.111 136.229 145.897 137.164 145.897C138.515 145.897 139.561 146.268 140.31 147.005C141.06 147.746 141.435 148.982 141.435 150.72V160.616H138.622V152.243C138.622 151.671 138.605 151.148 138.572 150.678C138.539 150.209 138.445 149.801 138.288 149.459C138.132 149.118 137.897 148.854 137.584 148.669C137.271 148.483 136.843 148.393 136.299 148.393C135.343 148.393 134.652 148.726 134.223 149.389C133.795 150.057 133.581 150.996 133.581 152.219V160.62H130.768V151.416C130.768 150.419 130.607 149.665 130.286 149.155C129.965 148.648 129.376 148.393 128.519 148.393C128.157 148.393 127.807 148.475 127.469 148.644C127.131 148.809 126.835 149.052 126.579 149.365C126.324 149.678 126.118 150.069 125.962 150.53C125.805 150.991 125.727 151.519 125.727 152.112V160.624H122.914V146.288V146.288Z" fill="black"/>
<path d="M155.602 160.624H152.839V158.627H152.789C152.443 159.348 151.928 159.924 151.245 160.361C150.561 160.793 149.865 161.012 149.161 161.012C147.481 161.012 146.27 160.546 145.52 159.611C144.771 158.676 144.396 157.268 144.396 155.382V146.288H147.209V155.077C147.209 156.333 147.423 157.223 147.851 157.737C148.28 158.256 148.881 158.516 149.655 158.516C150.248 158.516 150.742 158.413 151.138 158.211C151.533 158.009 151.854 157.737 152.101 157.391C152.348 157.05 152.526 156.638 152.633 156.156C152.74 155.674 152.793 155.159 152.793 154.603V146.284H155.606V160.624H155.602Z" fill="black"/>
<path d="M161.796 165.06C162.093 165.208 162.364 165.319 162.612 165.394C162.859 165.468 163.122 165.505 163.402 165.505C163.567 165.505 163.74 165.492 163.921 165.464C164.102 165.435 164.267 165.381 164.415 165.299C164.564 165.217 164.683 165.101 164.774 164.953C164.864 164.805 164.91 164.611 164.91 164.372C164.91 164.022 164.79 163.759 164.551 163.582C164.312 163.404 164.053 163.318 163.773 163.318C163.411 163.318 163.089 163.409 162.809 163.594L162.266 163.067L163.649 160.987C162.842 160.933 162.117 160.756 161.479 160.46C160.721 160.073 160.079 159.55 159.552 158.895C159.024 158.24 158.625 157.457 158.353 156.551C158.081 155.645 157.945 154.665 157.945 153.611C157.945 152.54 158.077 151.531 158.341 150.588C158.604 149.645 159 148.829 159.527 148.133C160.054 147.441 160.709 146.894 161.491 146.498C162.274 146.103 163.192 145.901 164.242 145.901C164.984 145.901 165.688 146.008 166.355 146.218C167.022 146.432 167.615 146.75 168.134 147.174C168.653 147.598 169.077 148.133 169.407 148.78C169.736 149.426 169.934 150.193 170 151.082H167.187C167.072 150.197 166.755 149.525 166.236 149.072C165.717 148.619 165.062 148.393 164.271 148.393C163.909 148.393 163.522 148.463 163.11 148.599C162.698 148.739 162.319 148.994 161.973 149.373C161.627 149.752 161.339 150.275 161.108 150.95C160.878 151.622 160.762 152.503 160.762 153.59C160.762 154.179 160.824 154.768 160.948 155.361C161.071 155.95 161.269 156.477 161.541 156.938C161.813 157.4 162.163 157.77 162.591 158.059C163.019 158.343 163.538 158.487 164.148 158.487C164.971 158.487 165.651 158.203 166.186 157.635C166.722 157.066 167.055 156.267 167.187 155.242H170C169.736 157.107 169.102 158.541 168.097 159.541C167.257 160.373 166.174 160.855 164.84 160.983L163.95 162.231L163.975 162.259C164.074 162.222 164.189 162.194 164.321 162.177C164.453 162.157 164.609 162.148 164.79 162.148C165.037 162.148 165.284 162.189 165.532 162.276C165.779 162.358 166.001 162.49 166.199 162.667C166.396 162.844 166.561 163.063 166.693 163.322C166.825 163.582 166.891 163.89 166.891 164.245C166.891 164.726 166.8 165.126 166.619 165.443C166.438 165.76 166.207 166.015 165.927 166.209C165.647 166.403 165.33 166.551 164.976 166.654C164.621 166.757 164.263 166.806 163.901 166.806C163.439 166.806 162.99 166.757 162.554 166.654C162.117 166.551 161.718 166.39 161.355 166.168L161.796 165.06Z" fill="black"/>
<path d="M63.3412 166.567H64.0413V167.749H64.0661C64.2432 167.325 64.5314 166.987 64.9268 166.749C65.3263 166.506 65.7752 166.386 66.2818 166.386C66.7554 166.386 67.1672 166.477 67.5173 166.65C67.8674 166.827 68.1598 167.066 68.3904 167.366C68.6251 167.667 68.7981 168.017 68.9093 168.416C69.0205 168.816 69.0782 169.236 69.0782 169.677C69.0782 170.117 69.0205 170.537 68.9093 170.937C68.7981 171.332 68.6251 171.682 68.3904 171.987C68.1557 172.288 67.8674 172.527 67.5173 172.704C67.1672 172.881 66.7554 172.971 66.2818 172.971C66.047 172.971 65.8205 172.943 65.6022 172.885C65.3798 172.827 65.1739 172.741 64.9803 172.626C64.7868 172.51 64.6179 172.366 64.4697 172.197C64.3214 172.028 64.2061 171.831 64.1278 171.608H64.1031V175.092H63.3453V166.567H63.3412ZM68.3204 169.677C68.3204 169.355 68.2833 169.034 68.2051 168.717C68.1268 168.4 68.0074 168.116 67.8426 167.869C67.6779 167.622 67.4679 167.416 67.2084 167.259C66.949 167.103 66.6401 167.024 66.2818 167.024C65.8658 167.024 65.5157 167.099 65.2316 167.243C64.9515 167.387 64.725 167.58 64.5561 167.819C64.3873 168.062 64.2679 168.342 64.202 168.664C64.132 168.985 64.099 169.323 64.099 169.677C64.099 169.998 64.1361 170.319 64.2143 170.636C64.2926 170.953 64.4161 171.238 64.5891 171.485C64.7621 171.736 64.9886 171.938 65.2645 172.094C65.5405 172.251 65.8823 172.329 66.2818 172.329C66.6442 172.329 66.9531 172.251 67.2084 172.094C67.4638 171.938 67.6779 171.736 67.8426 171.485C68.0074 171.238 68.1268 170.953 68.2051 170.636C68.2833 170.319 68.3204 169.998 68.3204 169.677Z" fill="black"/>
<path d="M70.2477 164.179H71.0055V167.638H71.0302C71.1044 167.453 71.2032 167.284 71.3391 167.127C71.4709 166.971 71.6274 166.839 71.8045 166.728C71.9816 166.621 72.1752 166.534 72.3852 166.473C72.5952 166.411 72.8094 166.382 73.0236 166.382C73.456 166.382 73.8225 166.44 74.1149 166.551C74.4073 166.662 74.6421 166.823 74.8192 167.029C74.9963 167.235 75.1198 167.486 75.194 167.782C75.2681 168.079 75.301 168.412 75.301 168.783V172.786H74.5433V168.902C74.5433 168.639 74.5185 168.392 74.4691 168.161C74.4197 167.931 74.3373 167.733 74.2138 167.564C74.0943 167.395 73.9296 167.263 73.7237 167.164C73.5178 167.07 73.2624 167.02 72.9577 167.02C72.6529 167.02 72.3811 167.074 72.1422 167.185C71.9033 167.292 71.7015 167.445 71.5327 167.63C71.3638 167.819 71.2362 168.042 71.1456 168.305C71.0591 168.565 71.0096 168.849 71.0014 169.154V172.782H70.2436V164.179H70.2477Z" fill="black"/>
<path d="M79.366 166.386C79.8396 166.386 80.2597 166.473 80.6262 166.65C80.9927 166.827 81.2975 167.066 81.5487 167.362C81.7958 167.659 81.9853 168.009 82.1171 168.412C82.2447 168.816 82.3106 169.236 82.3106 169.677C82.3106 170.126 82.2447 170.55 82.1171 170.949C81.9894 171.349 81.8 171.695 81.5487 171.991C81.2975 172.288 80.9927 172.527 80.6262 172.704C80.2597 172.881 79.8396 172.967 79.366 172.967C78.8923 172.967 78.4723 172.881 78.1057 172.704C77.7392 172.527 77.4344 172.288 77.1832 171.991C76.932 171.695 76.7466 171.345 76.6149 170.949C76.4872 170.55 76.4213 170.126 76.4213 169.677C76.4213 169.236 76.4872 168.812 76.6149 168.412C76.7425 168.009 76.932 167.663 77.1832 167.362C77.4303 167.066 77.7392 166.827 78.1057 166.65C78.4723 166.477 78.8923 166.386 79.366 166.386ZM79.366 167.024C79.0035 167.024 78.6864 167.103 78.4146 167.255C78.1428 167.407 77.9122 167.609 77.731 167.856C77.5497 168.108 77.4138 168.388 77.3191 168.709C77.2285 169.026 77.1791 169.351 77.1791 169.681C77.1791 170.01 77.2244 170.336 77.3191 170.653C77.4097 170.97 77.5497 171.254 77.731 171.501C77.9122 171.752 78.1387 171.95 78.4146 172.102C78.6864 172.255 79.0035 172.333 79.366 172.333C79.7284 172.333 80.0455 172.255 80.3173 172.102C80.5891 171.95 80.8156 171.748 80.9969 171.501C81.1781 171.254 81.314 170.97 81.4046 170.653C81.4952 170.336 81.5446 170.01 81.5446 169.681C81.5446 169.351 81.4993 169.03 81.4046 168.709C81.314 168.392 81.174 168.108 80.9969 167.856C80.8156 167.609 80.5891 167.407 80.3173 167.255C80.0455 167.103 79.7284 167.024 79.366 167.024Z" fill="black"/>
<path d="M84.6457 166.567H85.9101V167.206H84.6457V171.402C84.6457 171.649 84.6787 171.847 84.7487 171.987C84.8187 172.127 84.9876 172.205 85.2594 172.222C85.4777 172.222 85.6918 172.21 85.9101 172.185V172.836C85.7989 172.836 85.6836 172.84 85.5724 172.848C85.4612 172.856 85.3459 172.86 85.2347 172.86C84.7281 172.86 84.3739 172.761 84.1721 172.56C83.9703 172.358 83.8756 171.991 83.8838 171.464V167.206H82.7966V166.567H83.8838V164.698H84.6416V166.567H84.6457Z" fill="black"/>
<path d="M89.6414 166.386C90.115 166.386 90.5351 166.473 90.9017 166.65C91.2682 166.827 91.573 167.066 91.8242 167.362C92.0713 167.659 92.2607 168.009 92.3925 168.412C92.5202 168.816 92.5861 169.236 92.5861 169.677C92.5861 170.126 92.5202 170.55 92.3925 170.949C92.2648 171.349 92.0754 171.695 91.8242 171.991C91.573 172.288 91.2682 172.527 90.9017 172.704C90.5351 172.881 90.115 172.967 89.6414 172.967C89.1678 172.967 88.7477 172.881 88.3812 172.704C88.0146 172.527 87.7099 172.288 87.4587 171.991C87.2074 171.695 87.0221 171.345 86.8903 170.949C86.7626 170.55 86.6967 170.126 86.6967 169.677C86.6967 169.236 86.7626 168.812 86.8903 168.412C87.018 168.009 87.2074 167.663 87.4587 167.362C87.7058 167.066 88.0146 166.827 88.3812 166.65C88.7436 166.477 89.1637 166.386 89.6414 166.386ZM89.6414 167.024C89.279 167.024 88.9619 167.103 88.6901 167.255C88.4182 167.407 88.1876 167.609 88.0064 167.856C87.8252 168.108 87.6893 168.388 87.5946 168.709C87.504 169.026 87.4545 169.351 87.4545 169.681C87.4545 170.01 87.4998 170.336 87.5946 170.653C87.6852 170.97 87.8252 171.254 88.0064 171.501C88.1876 171.752 88.4141 171.95 88.6901 172.102C88.9619 172.255 89.279 172.333 89.6414 172.333C90.0038 172.333 90.321 172.255 90.5928 172.102C90.8646 171.95 91.0911 171.748 91.2723 171.501C91.4535 171.254 91.5894 170.97 91.6841 170.653C91.7748 170.336 91.8242 170.01 91.8242 169.681C91.8242 169.351 91.7789 169.03 91.6841 168.709C91.5935 168.392 91.4535 168.108 91.2723 167.856C91.0911 167.609 90.8646 167.407 90.5928 167.255C90.3168 167.103 89.9997 167.024 89.6414 167.024Z" fill="black"/>
<path d="M98.9737 172.284C98.9737 172.749 98.9243 173.169 98.8213 173.536C98.7225 173.906 98.5619 174.219 98.3436 174.475C98.1253 174.73 97.8411 174.928 97.4952 175.064C97.1451 175.2 96.7168 175.27 96.2103 175.27C95.8973 175.27 95.5925 175.232 95.2918 175.162C94.9953 175.092 94.7276 174.977 94.4888 174.825C94.2499 174.672 94.0563 174.479 93.8998 174.24C93.7433 174.001 93.6527 173.721 93.628 173.392H94.3899C94.4311 173.626 94.5093 173.82 94.6247 173.976C94.74 174.133 94.88 174.261 95.0489 174.355C95.2136 174.45 95.3948 174.52 95.5966 174.565C95.7984 174.611 96.0043 174.631 96.2103 174.631C96.9186 174.631 97.4293 174.429 97.7423 174.03C98.0553 173.626 98.2118 173.046 98.2118 172.28V171.439H98.1871C98.01 171.827 97.7505 172.135 97.4046 172.366C97.0586 172.601 96.6592 172.716 96.2103 172.716C95.7119 172.716 95.2877 172.634 94.9335 172.469C94.5794 172.304 94.2869 172.078 94.0604 171.789C93.8298 171.501 93.6651 171.159 93.5621 170.772C93.4592 170.381 93.4056 169.965 93.4056 169.524C93.4056 169.1 93.4674 168.692 93.5909 168.314C93.7145 167.931 93.8957 167.597 94.1346 167.313C94.3734 167.029 94.6658 166.802 95.0159 166.637C95.366 166.473 95.7655 166.39 96.2144 166.39C96.6715 166.39 97.0792 166.514 97.4334 166.757C97.7876 167.004 98.0388 167.296 98.1953 167.642H98.22V166.571H98.9819V172.284H98.9737ZM96.2103 172.078C96.5397 172.078 96.828 172.008 97.0792 171.868C97.3263 171.728 97.5364 171.542 97.7052 171.312C97.8741 171.081 98.0018 170.818 98.0841 170.521C98.1665 170.224 98.2118 169.92 98.2118 169.603C98.2118 169.298 98.1747 168.993 98.1047 168.684C98.0306 168.379 97.9153 168.103 97.7547 167.852C97.594 167.605 97.3881 167.403 97.1328 167.251C96.8774 167.099 96.5727 167.02 96.2103 167.02C95.8478 167.02 95.5389 167.094 95.2836 167.243C95.0283 167.391 94.8141 167.585 94.6453 167.828C94.4764 168.071 94.3528 168.342 94.2787 168.655C94.2005 168.964 94.1634 169.281 94.1634 169.603C94.1634 169.916 94.2046 170.22 94.2828 170.521C94.3611 170.818 94.4888 171.081 94.6576 171.312C94.8265 171.542 95.0406 171.728 95.296 171.868C95.5513 172.008 95.8561 172.078 96.2103 172.078Z" fill="black"/>
<path d="M100.419 166.567H101.119V168.025H101.144C101.338 167.519 101.638 167.127 102.042 166.856C102.446 166.584 102.932 166.456 103.496 166.481V167.243C103.15 167.226 102.837 167.272 102.557 167.383C102.277 167.49 102.034 167.646 101.828 167.848C101.622 168.05 101.465 168.289 101.35 168.573C101.239 168.853 101.181 169.158 101.181 169.479V172.794H100.419V166.567Z" fill="black"/>
<path d="M104.147 168.474C104.188 167.741 104.439 167.214 104.9 166.884C105.361 166.555 105.95 166.39 106.667 166.39C106.939 166.39 107.215 166.415 107.487 166.468C107.758 166.522 108.005 166.621 108.224 166.765C108.442 166.909 108.619 167.115 108.755 167.375C108.891 167.634 108.961 167.976 108.961 168.392V171.695C108.961 172 109.109 172.152 109.406 172.152C109.488 172.152 109.566 172.135 109.649 172.102V172.741C109.558 172.757 109.48 172.77 109.414 172.778C109.344 172.786 109.257 172.79 109.155 172.79C108.961 172.79 108.809 172.766 108.689 172.712C108.574 172.658 108.483 172.584 108.417 172.49C108.351 172.395 108.31 172.28 108.29 172.144C108.269 172.012 108.261 171.864 108.261 171.703H108.236C108.1 171.905 107.96 172.082 107.82 172.238C107.68 172.395 107.524 172.527 107.351 172.638C107.178 172.745 106.98 172.827 106.753 172.885C106.527 172.943 106.267 172.971 105.971 172.971C105.683 172.971 105.411 172.934 105.156 172.864C104.904 172.79 104.682 172.683 104.492 172.531C104.303 172.383 104.155 172.193 104.048 171.962C103.941 171.732 103.883 171.464 103.883 171.147C103.883 170.715 103.978 170.373 104.171 170.13C104.365 169.883 104.62 169.697 104.937 169.57C105.254 169.442 105.613 169.351 106.012 169.298C106.412 169.244 106.815 169.195 107.223 169.145C107.375 169.129 107.515 169.108 107.639 169.08C107.762 169.051 107.865 169.01 107.948 168.952C108.03 168.894 108.092 168.816 108.133 168.709C108.178 168.606 108.199 168.47 108.199 168.297C108.199 168.042 108.158 167.828 108.071 167.663C107.989 167.498 107.87 167.366 107.721 167.272C107.573 167.177 107.4 167.107 107.202 167.074C107.005 167.037 106.795 167.02 106.568 167.02C106.095 167.02 105.703 167.136 105.39 167.362C105.081 167.593 104.917 167.959 104.9 168.466H104.147V168.474ZM108.199 169.388H108.174C108.125 169.475 108.034 169.541 107.898 169.582C107.762 169.623 107.639 169.652 107.536 169.668C107.215 169.726 106.881 169.776 106.539 169.821C106.197 169.866 105.884 169.932 105.604 170.019C105.324 170.105 105.094 170.233 104.913 170.397C104.731 170.562 104.641 170.797 104.641 171.102C104.641 171.295 104.678 171.464 104.756 171.612C104.834 171.761 104.933 171.888 105.065 172C105.193 172.107 105.341 172.189 105.51 172.247C105.679 172.304 105.852 172.329 106.029 172.329C106.317 172.329 106.597 172.284 106.861 172.197C107.124 172.111 107.355 171.979 107.552 171.81C107.75 171.641 107.907 171.435 108.022 171.196C108.137 170.953 108.195 170.682 108.195 170.377V169.388H108.199Z" fill="black"/>
<path d="M110.476 166.567H111.177V167.749H111.201C111.378 167.325 111.667 166.987 112.062 166.749C112.462 166.506 112.91 166.386 113.417 166.386C113.891 166.386 114.302 166.477 114.653 166.65C115.003 166.827 115.295 167.066 115.526 167.366C115.76 167.667 115.933 168.017 116.045 168.416C116.156 168.816 116.213 169.236 116.213 169.677C116.213 170.117 116.156 170.537 116.045 170.937C115.933 171.332 115.76 171.682 115.526 171.987C115.291 172.288 115.003 172.527 114.653 172.704C114.302 172.881 113.891 172.971 113.417 172.971C113.182 172.971 112.956 172.943 112.737 172.885C112.515 172.827 112.309 172.741 112.116 172.626C111.922 172.51 111.753 172.366 111.605 172.197C111.457 172.028 111.341 171.831 111.263 171.608H111.238V175.092H110.481V166.567H110.476ZM115.456 169.677C115.456 169.355 115.419 169.034 115.34 168.717C115.262 168.4 115.143 168.116 114.978 167.869C114.813 167.622 114.603 167.416 114.344 167.259C114.084 167.103 113.775 167.024 113.417 167.024C113.001 167.024 112.651 167.099 112.367 167.243C112.087 167.387 111.86 167.58 111.691 167.819C111.523 168.062 111.403 168.342 111.337 168.664C111.267 168.985 111.234 169.323 111.234 169.677C111.234 169.998 111.271 170.319 111.35 170.636C111.428 170.953 111.551 171.238 111.724 171.485C111.897 171.736 112.124 171.938 112.4 172.094C112.676 172.251 113.018 172.329 113.417 172.329C113.779 172.329 114.088 172.251 114.344 172.094C114.599 171.938 114.813 171.736 114.978 171.485C115.143 171.238 115.262 170.953 115.34 170.636C115.419 170.319 115.456 169.998 115.456 169.677Z" fill="black"/>
<path d="M117.387 164.179H118.145V167.638H118.17C118.244 167.453 118.343 167.284 118.479 167.127C118.61 166.971 118.767 166.839 118.944 166.728C119.121 166.621 119.315 166.534 119.525 166.473C119.735 166.411 119.949 166.382 120.163 166.382C120.595 166.382 120.962 166.44 121.254 166.551C121.547 166.662 121.782 166.823 121.959 167.029C122.136 167.235 122.259 167.486 122.333 167.782C122.408 168.079 122.44 168.412 122.44 168.783V172.786H121.683V168.902C121.683 168.639 121.658 168.392 121.609 168.161C121.559 167.931 121.477 167.733 121.353 167.564C121.234 167.395 121.069 167.263 120.863 167.164C120.657 167.07 120.402 167.02 120.097 167.02C119.792 167.02 119.52 167.074 119.282 167.185C119.043 167.292 118.841 167.445 118.672 167.63C118.503 167.819 118.376 168.042 118.285 168.305C118.198 168.565 118.149 168.849 118.141 169.154V172.782H117.383V164.179H117.387Z" fill="black"/>
<path d="M123.174 166.567H123.981L126.032 171.872L127.951 166.567H128.713L126.011 173.742C125.9 174.005 125.797 174.228 125.702 174.401C125.608 174.574 125.505 174.709 125.381 174.808C125.262 174.907 125.122 174.981 124.965 175.027C124.809 175.072 124.611 175.092 124.368 175.092C124.216 175.084 124.096 175.08 124.014 175.076C123.931 175.072 123.853 175.06 123.791 175.035V174.396C123.882 174.413 123.964 174.425 124.051 174.438C124.133 174.45 124.22 174.454 124.31 174.454C124.479 174.454 124.619 174.429 124.726 174.38C124.833 174.331 124.928 174.265 125.01 174.182C125.089 174.1 125.159 173.997 125.216 173.873C125.274 173.754 125.332 173.618 125.398 173.474L125.661 172.761L123.174 166.567Z" fill="black"/>
</svg>
